<svg width="31" height="34" viewBox="0 0 31 34" fill="none" xmlns="http://www.w3.org/2000/svg">
<path fill-rule="evenodd" clip-rule="evenodd" d="M14.2949 33.4101C23.5209 33.4101 31 25.931 31 16.7051C31 7.47912 23.5209 0 14.2949 0C8.23467 0 2.92814 3.22708 0 8.05656C0.262523 7.75104 0.541844 7.45371 0.837952 7.16459C3.44866 4.61541 6.69304 3.34082 10.5711 3.34082C13.2325 3.34082 15.6531 3.99086 17.8329 5.29094C20.0381 6.61651 21.6856 8.40094 22.7755 10.6442L17.5288 12.5943C16.8698 11.3452 15.9193 10.3638 14.6773 9.65003C13.4353 8.93626 12.0666 8.57938 10.5711 8.57938C8.28989 8.57938 6.38888 9.35688 4.86808 10.9119C3.34728 12.4669 2.58688 14.3915 2.58688 16.6858C2.58688 18.98 3.30926 20.9174 4.75402 22.4979C6.22413 24.0529 8.0491 24.8304 10.2289 24.8304C11.8765 24.8304 13.3592 24.3843 14.6773 23.4921C15.9953 22.5744 16.8951 21.3635 17.3767 19.8595H9.58257V15.1945H23.5359C23.5359 15.322 23.5486 15.5641 23.574 15.921C23.6247 16.2524 23.65 16.4691 23.65 16.571C23.5993 20.4713 22.3193 23.6833 19.81 26.2069C17.25 28.7816 14.0816 30.0689 10.305 30.0689C6.50294 30.0689 3.32193 28.7944 0.761912 26.2452C0.544529 26.0265 0.336376 25.8036 0.137452 25.5763C3.09233 30.282 8.32832 33.4101 14.2949 33.4101Z" fill="#3C50E8"/>
</svg>
